PathFileType	4	(X/Y/Z)	C:/Users/opensim2020/Desktop/walking_exp_matlab/subject03_walking05_straight_04.trc	
DataRate	CameraRate	NumFrames	NumMarkers	Units	OrigDataRate	OrigDataStartFrame	OrigNumFrames	
100.00	100.00	7	45	mm	100.00	2891	294	
Frame#	Time	LFHD			RFHD			LBHD			RBHD			C7			T10			CLAV			STRN			RBAK			LSHO			LUPA			LELB			LFRM			LWRA			LWRB			LFIN			RSHO			RUPA			RELB			RFRM			RWRA			RWRB			RFIN			LASI			RASI			LPSI			RPSI			LTHI			LKNE			LTIB			LANK			LHEE			LTOE			RTHI			RKNE			RTIB			RANK			RHEE			RTOE			*39			*40			*41			*42			*43			*44			
		X1	Y1	Z1	X2	Y2	Z2	X3	Y3	Z3	X4	Y4	Z4	X5	Y5	Z5	X6	Y6	Z6	X7	Y7	Z7	X8	Y8	Z8	X9	Y9	Z9	X10	Y10	Z10	X11	Y11	Z11	X12	Y12	Z12	X13	Y13	Z13	X14	Y14	Z14	X15	Y15	Z15	X16	Y16	Z16	X17	Y17	Z17	X18	Y18	Z18	X19	Y19	Z19	X20	Y20	Z20	X21	Y21	Z21	X22	Y22	Z22	X23	Y23	Z23	X24	Y24	Z24	X25	Y25	Z25	X26	Y26	Z26	X27	Y27	Z27	X28	Y28	Z28	X29	Y29	Z29	X30	Y30	Z30	X31	Y31	Z31	X32	Y32	Z32	X33	Y33	Z33	X34	Y34	Z34	X35	Y35	Z35	X36	Y36	Z36	X37	Y37	Z37	X38	Y38	Z38	X39	Y39	Z39	X40	Y40	Z40	X41	Y41	Z41	X42	Y42	Z42	X43	Y43	Z43	X44	Y44	Z44	X45	Y45	Z45	

37	0.360	1513.61328	1257.52393	1619.47656	1381.96375	1278.03589	1620.51196	1530.79004	1389.13110	1590.60229	1400.29663	1404.24963	1590.79736	1480.61206	1443.60474	1430.94360	1478.19153	1492.85449	1117.21667	1465.70325	1324.60461	1350.05164	1464.51123	1286.74927	1184.37231	1385.08533	1513.11462	1258.93616	1625.24414	1351.21753	1386.55383	1702.44189	1344.93054	1192.84570	1720.52771	1328.49902	1071.98914	1724.18677	1292.96106	946.54639	1698.93628	1269.21240	828.63879	1751.77759	1286.45923	835.67426	1746.47131	1262.78064	754.80060	1311.57532	1385.00171	1378.45776	1238.62622	1388.67615	1155.79126	1223.96387	1372.02136	1044.67651	1219.51599	1347.74988	910.00098	1251.53760	1307.40955	817.13263	1211.44482	1343.53210	809.83240	1219.71033	1316.21533	740.21680	1580.96045	1317.47656	953.44098	1343.68286	1337.86841	947.63599	1542.38464	1483.38135	977.79681	1394.35583	1494.65942	975.65918	1629.77185	1374.90527	654.72809	1594.63171	1372.11902	475.67032	1603.62048	1422.19177	286.55252	1570.24146	1431.38855	72.19763	1534.16199	1470.07056	34.21520	1530.99561	1279.99658	36.59555	1305.16980	1342.26868	648.64075	1328.99280	1281.96375	479.03577	1336.94275	1407.90332	337.55167	1388.94690	1551.08691	180.91415	1445.79712	1602.29541	180.36063	1396.52063	1467.15833	68.18386	1474.07263	1338.45776	1690.71436															 
38	0.370	1513.74976	1249.03333	1619.26660	1382.18848	1269.91467	1620.25793	1531.28455	1380.68604	1590.69446	1400.72742	1396.08582	1590.80334	1481.39905	1435.52026	1430.86658	1479.54468	1484.73914	1117.19812	1466.11182	1316.55957	1350.02393	1465.20837	1278.51831	1184.38135	1386.68127	1505.61682	1259.01013	1625.69666	1342.62830	1386.96399	1703.42590	1333.78528	1193.79004	1721.77307	1314.75513	1073.48267	1725.84155	1276.44312	949.00311	1700.99072	1249.69128	831.43451	1753.62195	1267.50134	838.32507	1749.27637	1241.59192	758.36578	1312.24963	1377.77649	1378.31677	1239.09204	1382.27795	1155.75574	1224.20410	1365.82153	1044.72168	1219.57996	1341.30176	910.13409	1251.35986	1300.58350	817.31818	1211.39294	1337.11877	809.98370	1219.29919	1309.30310	740.46686	1582.05457	1309.19214	953.17804	1344.80579	1329.61755	947.89722	1543.22534	1475.11414	977.60760	1395.31677	1486.38733	975.66443	1630.20959	1368.52747	654.35651	1595.01599	1367.66064	475.34067	1603.80164	1419.55627	286.63400	1570.33862	1431.22949	72.73505	1534.58386	1470.39392	34.93962	1530.95239	1279.80798	36.45526	1305.76489	1330.65869	649.83679	1329.97510	1267.48767	481.20087	1338.42053	1389.07104	335.23428	1391.09119	1526.76392	173.85280	1447.66382	1578.27795	171.18138	1399.04138	1437.81799	65.56313	1476.17834	1330.55701	1688.32739															 
39	0.380	1513.81274	1240.61829	1618.98682	1382.24451	1261.84045	1619.99329	1531.74426	1372.31946	1590.72034	1401.37537	1388.21423	1590.92493	1482.18372	1427.47021	1430.70984	1480.73242	1476.39294	1116.96130	1466.49731	1308.49585	1349.88953	1465.60339	1270.25989	1184.35046	1387.86584	1497.64233	1258.46606	1626.06177	1334.08716	1387.20508	1704.36414	1322.76697	1194.64160	1722.97192	1301.11169	1074.83093	1727.19763	1259.82166	951.18158	1702.80383	1230.26111	834.39343	1755.19922	1248.56067	840.93414	1751.55432	1220.61145	761.83228	1312.83691	1370.46594	1377.94177	1239.46960	1375.73730	1155.56836	1224.38525	1359.57690	1044.60632	1219.63025	1334.86426	910.09888	1251.24744	1293.59290	817.28766	1211.43860	1330.59814	809.96680	1218.85608	1302.59192	740.65015	1582.63965	1300.30652	952.89569	1345.80029	1321.47217	948.01807	1544.14404	1466.89465	977.38745	1396.23486	1478.15771	975.58063	1630.64441	1362.14417	653.89417	1595.33167	1363.22644	474.96838	1603.87646	1416.94910	286.68317	1570.15002	1430.87830	72.89079	1534.69263	1470.50098	35.65903	1531.10449	1279.64563	36.51487	1306.41187	1318.91431	650.97198	1331.23608	1253.38806	483.06116	1340.06299	1370.22778	332.63712	1393.04846	1501.82202	166.23216	1449.46082	1553.25586	161.28880	1401.07520	1407.42224	62.75225																		 
40	0.390	1513.74597	1232.22473	1618.63416	1382.27332	1253.84851	1619.55994	1532.09277	1363.89844	1590.64575	1401.74268	1380.09216	1590.74475	1482.86743	1419.36121	1430.42993	1481.96680	1468.09497	1116.68469	1466.80115	1300.50098	1349.63342	1466.08423	1261.98462	1184.15491	1389.27673	1489.91235	1258.01648	1626.32178	1325.57300	1387.27490	1705.29041	1311.78650	1195.38574	1723.97949	1287.58875	1075.88123	1728.59338	1243.45007	953.49414	1704.36792	1211.08789	837.26898	1756.58093	1229.76501	843.61267	1753.52649	1199.73914	765.30450	1313.39172	1363.18091	1377.49097	1239.83618	1369.15002	1155.18799	1224.48438	1353.32275	1044.28894	1219.40942	1328.55078	910.02423	1251.65393	1287.80078	816.78894	1211.52515	1323.96521	809.66797	1218.58398	1295.52881	740.50360	1584.38599	1293.24377	952.31665	1346.76904	1313.17310	947.86041	1545.07532	1458.69702	977.14185	1397.06531	1469.90210	975.33942	1631.05054	1355.80774	653.36798	1595.66992	1358.86682	474.51346	1603.97644	1414.44360	286.72809	1569.95728	1430.51807	73.10646	1534.83691	1470.78687	36.32441	1531.09595	1279.43005	36.40268	1307.14221	1307.50989	651.89685	1332.36304	1239.77429	484.79935	1341.25049	1351.29883	329.86142	1394.57166	1476.49341	158.60847	1451.09790	1527.45044	151.03966	1402.72546	1377.25732	59.62597	1474.13611	1314.12036	1687.13306															 
41	0.400	1513.67468	1223.86084	1618.26196	1382.18384	1245.85828	1619.12695	1532.39807	1355.54688	1590.51331	1402.08423	1372.09985	1590.49133	1483.44946	1411.24988	1430.06372	1483.10339	1459.82751	1116.26855	1467.09900	1292.38757	1349.32788	1467.06946	1255.29053	1183.37952	1390.57104	1482.10681	1257.35730	1626.59741	1316.99268	1387.22437	1706.11853	1300.77625	1195.90479	1725.36902	1274.62659	1077.30701	1729.83838	1227.30115	955.72491	1705.86926	1191.65234	840.64880	1757.77698	1211.03027	846.26514	1755.08826	1178.99512	768.87537	1313.87793	1355.79370	1376.86194	1240.07898	1362.60974	1154.69031	1224.55359	1347.01318	1043.76245	1219.69031	1321.87048	909.33044	1251.48010	1280.84619	816.45752	1211.58447	1317.40259	809.22137	1218.62537	1288.52051	740.24890	1585.17896	1284.89258	951.63232	1347.69824	1304.99939	947.60431	1545.78296	1450.37134	976.64655	1397.89624	1461.65320	974.96808	1631.36072	1349.48230	652.83087	1595.90881	1354.53918	474.06485	1604.02771	1411.95618	286.75552	1569.76270	1430.11462	73.28432	1534.67517	1470.73999	36.70647	1531.13367	1279.24951	36.40015	1307.76978	1296.47144	652.64893	1333.44373	1226.68542	486.42819	1342.28223	1332.49731	326.98993	1395.74658	1450.24365	150.36591	1452.55676	1500.92371	140.51878	1403.68372	1346.33093	56.76842	1474.29028	1305.72815	1686.80725															 
42	0.410	1513.50232	1215.52612	1617.83691	1382.16187	1237.88464	1618.66211	1532.61951	1347.24695	1590.22815	1402.31763	1364.01001	1590.04968	1483.94092	1403.05591	1429.57227	1483.67090	1450.98962	1115.36902	1467.31201	1284.29102	1348.90356	1467.39685	1246.84180	1183.11670	1391.76855	1474.26404	1256.61340	1626.79126	1308.47766	1387.05664	1706.80530	1289.76489	1196.35291	1726.34314	1261.38379	1078.16113	1731.05017	1211.34229	957.97662	1707.05310	1172.70850	843.92236	1758.79480	1192.53040	848.99780	1756.31372	1158.48987	772.51038	1314.37268	1348.62122	1376.16394	1240.27344	1355.93628	1154.01184	1224.59485	1340.64758	1043.07959	1219.72729	1315.28406	908.65063	1250.83972	1273.78125	816.33630	1211.71155	1310.68384	808.56586	1218.51208	1281.37720	739.70001	1586.07910	1276.71021	950.96271	1348.43726	1296.89502	947.26575	1546.49731	1442.15796	976.09930	1398.65637	1453.41516	974.43713	1631.40186	1343.27808	652.20593	1596.12634	1350.23376	473.66461	1604.07019	1409.37903	286.81839	1569.59546	1429.70313	73.61267	1534.50012	1470.57263	37.07556	1531.13770	1279.08289	36.33238	1308.24048	1285.65796	653.35364	1334.37695	1214.01917	487.82751	1343.10156	1313.75720	323.97134	1396.96082	1423.40784	142.15802	1453.89954	1473.55090	129.71687	1404.09839	1314.93225	54.14506	1474.66309	1297.33386	1686.52222															 
43	0.420	1513.25061	1207.19043	1617.36157	1381.95557	1229.87866	1618.02026	1532.76050	1338.80054	1589.85486	1402.50427	1355.98889	1589.53430	1484.42236	1394.82349	1429.02661	1485.03027	1442.94690	1115.09375	1467.48169	1276.18262	1348.38525	1467.71545	1238.63843	1182.66980	1393.15027	1467.03857	1256.05896	1626.94592	1299.83826	1386.69299	1707.49280	1278.77026	1196.72803	1727.51404	1248.55786	1079.27917	1732.05273	1195.53760	960.21533	1707.97852	1153.89893	847.24121	1759.55090	1174.18201	851.61835	1757.11084	1138.05981	776.06354	1314.71399	1341.06995	1375.24146	1240.51624	1349.19458	1153.12598	1224.64966	1334.11987	1042.24219	1219.58301	1308.96716	908.10919	1250.93213	1266.66406	815.48621	1211.86462	1303.90918	807.72632	1218.85486	1274.44641	739.12317	1586.95801	1268.64185	950.39862	1349.21411	1288.59839	946.74237	1547.17639	1433.88574	975.43146	1399.35828	1445.11511	973.76001	1631.46594	1337.06055	651.70935	1596.23511	1345.88159	473.27042	1604.07007	1406.82141	286.88318	1569.32886	1429.26929	73.88086	1534.31030	1470.51794	37.51519	1531.11072	1278.66626	36.36625	1308.96680	1274.87964	653.54834	1335.20862	1201.84705	488.90335	1343.76270	1295.13452	320.78705	1397.61890	1396.18250	133.82393	1454.71619	1445.29272	118.74209	1404.20667	1283.35413	51.75741	1474.17151	1289.19482	1685.91650															 
